<svg width="11" height="12" viewBox="0 0 11 12" fill="none" xmlns="http://www.w3.org/2000/svg">
<path d="M8.16667 0H2.33333C1.05 0 0 1.05 0 2.33333V9.33333C0 10.6167 1.05 11.6667 2.33333 11.6667H8.16667C9.45 11.6667 10.5 10.6167 10.5 9.33333V2.33333C10.5 1.05 9.45 0 8.16667 0ZM4.585 9.415C4.4975 9.5025 4.38667 9.54333 4.27583 9.54333C4.165 9.54333 4.05417 9.5025 3.96667 9.415L3.5875 9.03583L3.22583 9.3975C3.13833 9.485 3.0275 9.52583 2.91667 9.52583C2.80583 9.52583 2.695 9.485 2.6075 9.3975C2.43833 9.22833 2.43833 8.94833 2.6075 8.77917L2.96917 8.4175L2.625 8.07333C2.45583 7.90417 2.45583 7.62417 2.625 7.455C2.79417 7.28583 3.07417 7.28583 3.24333 7.455L3.5875 7.79917L3.94917 7.4375C4.11833 7.26833 4.39833 7.26833 4.5675 7.4375C4.73667 7.60667 4.73667 7.88667 4.5675 8.05583L4.20583 8.4175L4.585 8.79667C4.75417 8.96583 4.75417 9.24583 4.585 9.415ZM6.7025 9.61917C6.38167 9.61917 6.11917 9.3625 6.11917 9.04167V9.03C6.11917 8.70917 6.38167 8.44667 6.7025 8.44667C7.02333 8.44667 7.28583 8.70917 7.28583 9.03C7.28583 9.35083 7.02333 9.61917 6.7025 9.61917ZM7.88083 8.35917C7.56 8.35917 7.29167 8.09667 7.29167 7.77583C7.29167 7.455 7.54833 7.1925 7.86917 7.1925H7.88083C8.20167 7.1925 8.46417 7.455 8.46417 7.77583C8.46417 8.09667 8.20167 8.35917 7.88083 8.35917ZM8.75 4.22917C8.75 4.78917 8.28917 5.25 7.72917 5.25H2.77083C2.21083 5.25 1.75 4.78917 1.75 4.22917V2.77083C1.75 2.21083 2.21083 1.75 2.77083 1.75H7.72917C8.28917 1.75 8.75 2.21083 8.75 2.77083V4.22917Z" fill="black"/>
</svg>
